<?xml version="1.0" encoding="UTF-8" standalone="no"?>
<!-- Created with qrencode 4.1.1 (https://fukuchi.org/works/qrencode/index.html) -->

<svg
   width="13.05cm"
   height="13.05cm"
   viewBox="0 0 37 37"
   preserveAspectRatio="none"
   version="1.1"
   id="svg435"
   sodipodi:docname="SharingRoastPilot.svg"
   inkscape:version="1.4.2 (ebf0e940d0, 2025-05-08)"
   xmlns:inkscape="http://www.inkscape.org/namespaces/inkscape"
   xmlns:sodipodi="http://sodipodi.sourceforge.net/DTD/sodipodi-0.dtd"
   xmlns="http://www.w3.org/2000/svg"
   xmlns:svg="http://www.w3.org/2000/svg">
  <defs
     id="defs435" />
  <sodipodi:namedview
     id="namedview435"
     pagecolor="#ffffff"
     bordercolor="#000000"
     borderopacity="0.25"
     inkscape:showpageshadow="2"
     inkscape:pageopacity="0.0"
     inkscape:pagecheckerboard="0"
     inkscape:deskcolor="#d1d1d1"
     inkscape:document-units="cm"
     inkscape:zoom="1.6587095"
     inkscape:cx="264.96503"
     inkscape:cy="277.02259"
     inkscape:window-width="2560"
     inkscape:window-height="1344"
     inkscape:window-x="26"
     inkscape:window-y="23"
     inkscape:window-maximized="0"
     inkscape:current-layer="svg435" />
  <g
     id="QRcode">
    <g
       id="Pattern"
       transform="translate(4,4)">
      <path
         id="rect2"
         d="M -1.4924204,-1.4924204 V -0.38952788 0.71336463 1.8162571 2.9193113 4.0222037 5.1250962 6.2279888 H -0.38952788 0.71336463 1.8162571 2.9193113 4.0222037 5.1250962 6.2279888 V 5.1250962 4.0222037 2.9193113 1.8162571 0.71336463 -0.38952788 -1.4924204 H 5.1250962 4.0222037 2.9193113 1.8162571 0.71336463 -0.38952788 Z m 12.1321404,0 v 1.10289252 H 9.5368275 V 0.71336463 1.8162571 H 10.63972 v 1.1030542 1.1028924 h 1.102893 V 2.9193113 h 1.103054 1.102892 v 1.1028924 h 1.102893 V 2.9193113 h 1.102893 V 1.8162571 H 15.051452 V 0.71336463 h 1.102893 V 1.8162571 h 1.102892 V 0.71336463 h 1.103054 1.102893 1.102892 V -0.38952788 -1.4924204 h -1.102892 -1.102893 v 1.10289252 H 17.257237 V -1.4924204 h -1.102892 v 1.10289252 H 15.051452 13.948559 V 0.71336463 H 12.845667 V 1.8162571 H 11.742613 V 0.71336463 -0.38952788 h 1.103054 1.102892 V -1.4924204 h -1.102892 -1.103054 z m 3.308839,5.5146241 h -1.102892 v 1.1028925 h 1.102892 z m 0,1.1028925 V 6.2279888 H 12.845667 V 5.1250962 h -1.103054 v 1.1028926 1.103054 1.1028925 h 1.103054 V 7.3310428 h 1.102892 v 1.1028925 1.1028922 h 1.102893 1.102893 V 8.4339353 7.3310428 H 15.051452 V 6.2279888 5.1250962 Z m 2.205786,2.2059466 h 1.102892 v 1.1028925 1.1028922 1.1028925 1.102893 h -1.102892 v 1.103054 h -1.102893 v 1.102892 h -1.102893 v 1.102893 h -1.102892 v 1.102893 h 1.102892 v 1.102892 1.103054 h 1.102893 1.102893 v -1.103054 h 1.102892 v 1.103054 1.102893 h -1.102892 v 1.102892 h -1.102893 v 1.102892 h 1.102893 1.102892 1.103054 1.102893 v 1.103054 1.102893 h 1.102892 v 1.102893 1.102892 h 1.102892 1.103054 1.102893 v 1.102893 1.103054 H 22.772022 21.668968 20.566076 V 27.183593 26.0807 h -1.102892 v 1.102893 h -1.102893 v 1.103054 h -1.103054 v 1.102893 1.102891 h 1.103054 V 29.38954 h 1.102893 v 1.102891 h 1.102892 1.102892 1.103054 1.102893 V 29.38954 h 1.102893 v 1.102891 H 26.0807 27.183593 V 29.38954 H 26.0807 v -1.102893 h 1.102893 V 27.183593 H 26.0807 V 26.0807 24.977808 h 1.102893 V 23.874915 22.772022 H 26.0807 v -1.103054 -1.102892 h 1.102893 V 19.463184 H 26.0807 24.977808 v 1.102892 h -1.102893 -1.102893 v -1.102892 h -1.103054 -1.102892 v 1.102892 h -1.102892 -1.102893 v -1.102892 h 1.102893 v -1.102893 h -1.102893 v -1.103054 -1.102892 h 1.102893 1.102892 1.102892 v -1.102893 h 1.103054 v -1.102893 h 1.102893 v -1.102892 h 1.102893 V 11.742613 10.63972 9.5368275 H 23.874915 V 8.4339353 H 22.772022 V 9.5368275 H 21.668968 V 10.63972 H 20.566076 19.463184 18.360291 V 9.5368275 h 1.102893 V 8.4339353 H 18.360291 V 7.3310428 6.2279888 H 17.257237 V 5.1250962 h -1.102892 v 1.1028926 z m 2.205946,-1.103054 h 1.102893 V 5.1250962 h 1.102892 V 4.0222037 2.9193113 h -1.102892 -1.102893 -1.103054 v 1.1028924 h 1.103054 v 1.1028925 z m 2.205785,-1.1028926 v 1.1028926 h 1.102892 V 5.1250962 Z m 1.102892,4.4117313 V 8.4339353 7.3310428 h -1.102892 v 1.1028925 1.1028922 z m 2.205947,4.4117315 v 1.102893 1.102893 h 1.102893 V 15.051452 H 26.0807 v 1.102893 1.102892 1.103054 h 1.102893 1.103054 V 17.257237 H 27.183593 V 16.154345 15.051452 13.948559 12.845667 11.742613 H 26.0807 v 1.103054 1.102892 h -1.102892 z m 4.411732,3.308678 h 1.102893 v 1.103054 h -1.102893 v 1.102893 1.102892 h 1.102893 v -1.102892 h 1.102891 V 18.360291 17.257237 16.154345 H 29.38954 v -1.102893 h 1.102891 V 13.948559 12.845667 11.742613 H 29.38954 V 10.63972 h 1.102891 V 9.5368275 8.4339353 H 29.38954 V 9.5368275 H 28.286647 27.183593 V 10.63972 h 1.103054 v 1.102893 1.103054 h 1.102893 v 1.102892 h -1.102893 v 1.102893 1.102893 z M 27.183593,9.5368275 V 8.4339353 H 26.0807 V 9.5368275 Z M 26.0807,8.4339353 V 7.3310428 h -1.102892 v 1.1028925 z m 3.30884,0 V 7.3310428 h -1.102893 v 1.1028925 z m -5.514625,7.7204097 h -1.102893 -1.103054 v 1.102892 h 1.103054 v 1.103054 1.102893 h 1.102893 1.102893 v -1.102893 h -1.102893 v -1.103054 z m -2.205947,1.102892 h -1.102892 v 1.103054 h 1.102892 z m 5.514625,5.514785 h 1.103054 v 1.102893 1.102893 h 1.102893 v -1.102893 h 1.102891 V 22.772022 21.668968 H 29.38954 28.286647 27.183593 Z m 2.205947,2.205786 V 26.0807 h -1.102893 -1.103054 v 1.102893 h 1.103054 1.102893 v 1.103054 h 1.102891 V 27.183593 26.0807 24.977808 Z m 0,3.308839 h -1.102893 v 1.102893 1.102891 h 1.102893 1.102891 V 29.38954 H 29.38954 Z m -12.132303,0 v -1.103054 h 1.103054 V 26.0807 24.977808 23.874915 22.772022 h -1.103054 -1.102892 v 1.102893 h 1.102892 v 1.102893 1.102892 h -1.102892 v 1.102893 1.103054 z m -1.102892,0 h -1.102893 -1.102893 v 1.102893 1.102891 h 1.102893 V 29.38954 h 1.102893 z m -2.205786,0 v -1.103054 h 1.102893 V 26.0807 24.977808 h 1.102893 v -1.102893 h -1.102893 v -1.102893 h -1.102893 v 1.102893 H 12.845667 11.742613 V 22.772022 H 10.63972 9.5368275 V 21.668968 20.566076 H 8.4339353 v 1.102892 H 7.3310428 v 1.103054 h 1.1028925 v 1.102893 H 9.5368275 10.63972 v 1.102893 1.102892 1.102893 h 1.102893 V 26.0807 h 1.103054 v -1.102892 h 1.102892 V 26.0807 h -1.102892 v 1.102893 1.103054 z M 10.63972,27.183593 H 9.5368275 V 26.0807 H 8.4339353 v 1.102893 H 7.3310428 v 1.103054 H 8.4339353 9.5368275 V 29.38954 H 8.4339353 7.3310428 v 1.102891 H 8.4339353 9.5368275 10.63972 V 29.38954 28.286647 Z M 8.4339353,26.0807 V 24.977808 H 7.3310428 V 26.0807 Z M 9.5368275,20.566076 H 10.63972 V 19.463184 H 9.5368275 Z m 1.1028925,0 v 1.102892 h 1.102893 v 1.103054 h 1.103054 1.102892 v -1.103054 h -1.102892 v -1.102892 -1.102892 h -1.103054 v 1.102892 z m 2.205947,-1.102892 h 1.102892 v -1.102893 h -1.102892 z m 0,-3.308839 H 11.742613 10.63972 9.5368275 v 1.102892 H 8.4339353 V 16.154345 H 7.3310428 v 1.102892 h -1.103054 v 1.103054 h 1.103054 v 1.102893 H 8.4339353 V 18.360291 H 9.5368275 10.63972 v -1.103054 h 1.102893 1.103054 z M 6.2279888,18.360291 H 5.1250962 v 1.102893 h 1.1028926 z m -1.1028926,0 V 17.257237 H 4.0222037 V 16.154345 H 2.9193113 v 1.102892 H 1.8162571 V 16.154345 H 0.71336463 V 15.051452 13.948559 H 1.8162571 v -1.102892 h 1.1030542 v 1.102892 h 1.1028924 v 1.102893 H 5.1250962 6.2279888 V 13.948559 H 5.1250962 V 12.845667 H 6.2279888 V 11.742613 H 5.1250962 V 10.63972 h 1.1028926 1.103054 v 1.102893 H 8.4339353 V 10.63972 9.5368275 8.4339353 H 7.3310428 V 9.5368275 H 6.2279888 5.1250962 V 8.4339353 H 4.0222037 V 7.3310428 H 2.9193113 V 8.4339353 H 1.8162571 V 9.5368275 H 2.9193113 V 10.63972 h 1.1028924 v 1.102893 H 2.9193113 1.8162571 0.71336463 -0.38952788 -1.4924204 v 1.103054 h 1.10289252 v 1.102892 1.102893 H -1.4924204 v 1.102893 h 1.10289252 v 1.102892 h 1.10289251 v 1.103054 1.102893 h -1.10289251 v 1.102892 h 1.10289251 v 1.102892 H 1.8162571 V 20.566076 H 2.9193113 V 19.463184 H 1.8162571 v -1.102893 h 1.1030542 v 1.102893 h 1.1028924 v -1.102893 z m -2.2057849,2.205785 v 1.102892 h 1.1028924 v -1.102892 z m -3.30883918,0 H -1.4924204 v 1.102892 h 1.10289252 z m 0,-1.102892 V 18.360291 H -1.4924204 v 1.102893 z M 1.8162571,9.5368275 H 0.71336463 V 8.4339353 H -0.38952788 V 7.3310428 H -1.4924204 v 1.1028925 1.1028922 h 1.10289252 V 10.63972 H 0.71336463 1.8162571 Z M 0.71336463,8.4339353 H 1.8162571 V 7.3310428 H 0.71336463 Z m 4.41173157,0 H 6.2279888 V 7.3310428 H 5.1250962 Z m 3.3088391,3.3086777 v 1.103054 H 7.3310428 6.2279888 v 1.102892 h 1.103054 v 1.102893 H 8.4339353 9.5368275 V 13.948559 H 10.63972 V 12.845667 H 9.5368275 v -1.103054 z m 1.1028922,0 H 10.63972 11.742613 V 10.63972 H 10.63972 9.5368275 Z m 1.1028925,2.205946 v 1.102893 h 1.102893 1.103054 v -1.102893 h 1.102892 v -1.102892 h -1.102892 -1.103054 v 1.102892 z M 1.8162571,16.154345 H 2.9193113 V 15.051452 H 1.8162571 Z m 3.3088391,1.102892 H 6.2279888 V 16.154345 H 5.1250962 Z M 16.154345,11.742613 V 10.63972 h -1.102893 v 1.102893 z M 13.948559,9.5368275 H 12.845667 V 10.63972 h 1.102892 z M 11.742613,8.4339353 H 10.63972 V 7.3310428 6.2279888 5.1250962 4.0222037 H 9.5368275 V 2.9193113 H 8.4339353 7.3310428 v 1.1028924 h 1.1028925 v 1.1028925 h 1.1028922 v 1.1028926 1.103054 1.1028925 1.1028922 H 10.63972 11.742613 Z M 8.4339353,5.1250962 H 7.3310428 V 6.2279888 H 8.4339353 Z M 22.772022,-1.4924204 v 1.10289252 1.10289251 1.10289247 1.1030542 1.1028924 1.1028925 1.1028926 h 1.102893 1.102893 1.102892 1.102893 1.103054 1.102893 1.102891 V 5.1250962 4.0222037 2.9193113 1.8162571 0.71336463 -0.38952788 -1.4924204 H 29.38954 28.286647 27.183593 26.0807 24.977808 23.874915 Z M -0.38952788,-0.38952788 H 0.71336463 1.8162571 2.9193113 4.0222037 5.1250962 V 0.71336463 1.8162571 2.9193113 4.0222037 5.1250962 H 4.0222037 2.9193113 1.8162571 0.71336463 -0.38952788 V 4.0222037 2.9193113 1.8162571 0.71336463 Z m 7.72057068,0 v 1.10289251 h 1.1028925 v -1.10289251 z m 16.5438722,0 h 1.102893 1.102892 1.102893 1.103054 1.102893 V 0.71336463 1.8162571 2.9193113 4.0222037 5.1250962 H 28.286647 27.183593 26.0807 24.977808 23.874915 V 4.0222037 2.9193113 1.8162571 0.71336463 Z M 0.71336463,0.71336463 V 1.8162571 2.9193113 4.0222037 H 1.8162571 2.9193113 4.0222037 V 2.9193113 1.8162571 0.71336463 H 2.9193113 1.8162571 Z m 24.26444337,0 V 1.8162571 2.9193113 4.0222037 h 1.102892 1.102893 1.103054 V 2.9193113 1.8162571 0.71336463 H 27.183593 26.0807 Z M 22.772022,10.63972 h 1.102893 v 1.102893 h -1.102893 v 1.103054 h -1.103054 v 1.102892 h -1.102892 v 1.102893 h -1.102892 -1.102893 -1.103054 v -1.102893 h 1.103054 v -1.102892 -1.103054 h 1.102893 v 1.103054 h 1.102892 1.102892 v -1.103054 h 1.103054 z m -7.72057,4.411732 h 1.102893 v 1.102893 h -1.102893 z m -9.9263558,5.514624 v 1.102892 h 1.1028926 v -1.102892 z m 16.5438718,1.102892 h 1.103054 1.102893 1.102893 v 1.103054 1.102893 1.102893 h -1.102893 -1.102893 -1.103054 v -1.102893 -1.102893 z m -23.1613884,1.103054 v 1.102893 1.102893 1.102892 1.102893 1.103054 1.102893 1.102891 H -0.38952788 0.71336463 1.8162571 2.9193113 4.0222037 5.1250962 6.2279888 V 29.38954 28.286647 27.183593 26.0807 24.977808 23.874915 22.772022 H 5.1250962 4.0222037 2.9193113 1.8162571 0.71336463 -0.38952788 Z m 24.2644424,0 v 1.102893 h 1.102893 V 22.772022 Z M -0.38952788,23.874915 H 0.71336463 1.8162571 2.9193113 4.0222037 5.1250962 v 1.102893 1.102892 1.102893 1.103054 1.102893 H 4.0222037 2.9193113 1.8162571 0.71336463 -0.38952788 V 28.286647 27.183593 26.0807 24.977808 Z m 1.10289251,1.102893 v 1.102892 1.102893 1.103054 H 1.8162571 2.9193113 4.0222037 V 27.183593 26.0807 24.977808 H 2.9193113 1.8162571 Z"
         style="stroke-width:1.10293" />
    </g>
  </g>
</svg>
